<?xml version="1.0" encoding="UTF-8" standalone="no"?>
<!DOCTYPE svg PUBLIC "-//W3C//DTD SVG 1.1//EN" "http://www.w3.org/Graphics/SVG/1.1/DTD/svg11.dtd">
<svg xmlns="http://www.w3.org/2000/svg" version="1.1" viewBox="0 0 1254 836" width="1254.0pt" height="836.0pt" xmlns:xlink="http://www.w3.org/1999/xlink">
<defs>
<path d="M 0.00 0.00 L 1254.00 0.00 L 1254.00 836.00 L 0.00 836.00 L 0.00 0.00 Z M 662.82 645.35 C 661.64 650.46 658.35 653.47 655.84 658.06 C 652.30 664.24 647.79 669.98 640.83 672.39 C 633.82 673.12 627.07 671.69 620.10 673.56 C 613.04 675.35 606.35 674.05 599.29 674.75 C 594.00 675.82 588.85 677.58 583.61 678.89 C 581.19 679.70 577.98 680.07 576.78 682.65 C 575.95 684.76 577.68 687.40 579.04 688.92 C 581.00 691.03 584.36 690.46 586.98 690.58 C 591.72 690.73 596.23 689.37 600.95 689.36 C 604.11 689.32 606.99 688.99 609.76 690.88 C 603.46 695.74 594.14 696.27 589.53 702.47 C 588.04 703.93 588.62 706.36 588.50 708.27 C 592.88 709.66 597.00 710.91 601.67 710.27 C 611.15 708.63 619.82 705.27 628.58 701.42 C 634.27 699.29 640.19 698.06 645.75 695.49 C 655.06 691.37 664.12 694.22 673.68 694.80 C 678.08 695.34 682.36 696.64 686.74 697.25 C 689.05 696.70 692.16 695.52 693.43 693.41 C 693.64 692.18 693.64 690.87 693.30 689.67 C 690.53 685.67 685.82 682.82 681.51 680.75 C 677.83 678.85 673.84 680.14 670.09 678.29 C 670.81 671.83 676.06 665.81 679.79 660.70 C 682.49 657.33 684.31 653.28 687.11 650.02 C 689.59 648.15 693.31 647.69 696.23 646.74 C 702.32 645.10 707.44 641.32 711.68 636.76 C 714.93 633.29 717.16 629.27 720.95 626.30 C 725.58 628.97 727.97 633.61 732.30 636.65 C 737.28 640.28 742.27 644.04 747.68 647.02 C 755.89 651.20 765.08 653.98 773.93 656.53 C 778.15 657.88 782.50 657.02 786.71 658.42 C 786.35 664.72 782.75 670.91 780.49 676.76 C 778.46 680.74 777.11 686.61 773.21 689.06 C 770.74 690.85 768.03 692.17 764.94 692.40 C 757.12 692.93 749.22 694.69 741.47 695.97 C 734.34 697.39 726.51 698.58 719.87 701.53 C 717.02 702.78 714.50 704.57 712.72 707.16 C 712.16 708.74 712.48 710.48 712.44 712.18 C 715.82 713.04 719.52 714.67 723.04 714.47 C 726.49 713.86 729.74 712.40 733.22 711.82 C 737.51 711.09 741.76 710.18 746.04 709.39 C 741.04 718.63 730.42 719.10 724.12 727.07 C 722.85 728.77 721.33 730.69 721.47 732.92 C 721.06 735.58 724.58 737.37 726.50 738.47 C 727.81 739.24 728.83 738.22 730.07 737.76 C 735.06 735.16 740.58 734.16 745.45 731.25 C 756.09 725.00 767.28 719.81 778.10 713.87 C 784.19 710.48 790.70 709.56 797.51 711.12 C 802.76 712.44 808.13 713.09 813.43 714.21 C 816.19 714.94 818.74 713.55 820.32 711.32 C 820.56 708.93 821.20 705.63 818.98 704.00 C 812.88 698.43 804.47 697.37 796.98 693.26 C 799.47 686.77 802.84 680.69 805.59 674.30 C 808.87 668.04 811.62 661.84 816.55 656.65 C 820.99 652.06 825.14 646.10 831.24 643.96 C 837.01 641.69 842.51 638.84 847.91 635.79 C 853.69 632.71 858.45 628.24 864.07 624.86 C 869.06 621.82 872.45 617.48 876.11 613.06 C 879.73 609.32 883.48 605.79 886.68 601.65 C 894.67 592.88 899.60 583.09 906.30 573.17 C 911.83 563.16 916.07 552.29 920.31 541.68 C 922.53 534.45 924.99 527.14 926.16 519.65 C 927.14 513.03 927.95 506.41 928.68 499.77 C 930.86 491.92 936.02 484.36 939.87 477.22 C 943.70 469.46 947.39 461.68 950.35 453.54 C 952.64 447.43 955.99 441.75 958.24 435.63 C 960.35 429.00 962.43 422.36 964.48 415.70 C 965.42 412.56 967.47 409.37 967.59 406.10 C 967.83 400.26 968.07 394.57 967.46 388.75 C 965.12 387.83 962.16 385.63 959.63 386.80 C 955.06 389.18 951.34 393.03 946.84 395.47 C 945.37 396.13 944.17 395.79 943.22 394.45 C 946.08 388.06 949.52 381.94 952.24 375.46 C 955.16 369.55 955.19 363.12 957.72 357.06 C 958.47 354.60 960.30 351.45 958.86 348.97 C 957.42 346.00 954.74 342.92 951.70 341.57 C 947.52 341.74 943.12 343.70 939.43 345.61 C 933.57 348.69 929.65 353.39 924.88 357.82 C 921.42 361.05 918.23 366.13 913.82 367.97 L 912.39 366.27 C 915.67 357.28 921.03 349.32 923.16 339.73 C 925.27 332.96 926.39 326.27 925.25 319.18 C 923.87 316.07 920.86 312.64 917.07 313.45 C 908.11 315.55 899.83 320.90 893.31 327.32 C 887.37 332.47 881.56 337.56 876.86 343.93 C 873.19 348.97 868.40 352.93 864.98 358.12 C 862.71 361.46 860.55 364.84 858.02 368.00 C 851.85 375.85 846.58 384.51 840.08 392.08 C 829.78 402.29 816.76 410.62 802.54 414.02 C 792.54 416.62 781.72 419.82 771.32 419.42 C 765.86 418.38 760.50 418.76 755.00 418.51 C 743.04 417.21 730.95 413.05 721.19 405.93 C 716.76 402.18 711.72 397.62 709.58 392.11 C 708.41 389.29 707.85 386.32 707.15 383.36 C 706.09 378.50 703.94 374.08 703.21 369.13 C 700.39 352.03 695.81 334.53 685.96 320.02 C 683.47 316.56 681.34 312.69 678.47 309.54 C 674.06 305.05 668.94 301.57 664.11 297.75 C 663.14 297.00 663.33 295.87 663.89 294.92 C 666.89 290.22 671.42 286.55 674.34 281.83 C 674.84 279.40 675.22 276.70 673.20 274.86 C 671.12 272.72 668.30 269.92 665.07 270.42 C 660.61 270.87 656.64 274.56 652.34 275.42 C 651.42 274.87 650.54 274.23 649.66 273.61 C 651.20 268.72 653.60 261.85 649.08 257.84 C 647.61 255.96 645.37 256.36 643.25 256.30 C 639.64 256.28 636.10 258.03 633.18 260.02 C 630.10 262.20 628.64 265.59 625.99 267.97 C 624.81 268.61 623.11 268.32 621.79 268.46 C 621.57 263.84 622.09 259.69 619.88 255.42 C 618.15 251.78 615.83 247.63 611.12 248.29 C 608.22 248.11 606.89 250.19 604.89 251.90 C 601.47 255.30 597.81 258.47 595.67 262.85 C 593.72 266.85 592.07 271.15 590.93 275.45 C 589.60 281.19 590.96 287.73 590.31 293.46 C 588.91 295.48 586.25 296.78 584.27 298.20 C 579.49 301.41 576.48 306.22 572.46 310.50 C 569.47 313.74 567.33 317.43 564.93 321.10 C 560.66 327.31 558.20 334.82 556.66 342.14 C 556.54 357.45 551.93 371.05 549.71 386.10 C 548.94 392.81 546.41 398.92 544.99 405.47 C 543.45 412.43 540.99 419.11 539.67 426.14 C 538.89 430.44 537.76 434.52 536.26 438.62 C 533.95 444.79 533.72 451.15 531.97 457.45 C 530.64 462.14 530.45 466.98 529.22 471.68 C 527.90 476.65 528.26 482.20 529.13 487.22 C 529.94 494.18 528.76 501.50 529.98 508.42 C 533.50 522.94 535.24 536.47 543.06 549.64 C 547.23 558.28 552.21 566.26 558.01 573.89 C 561.09 577.91 562.92 582.18 566.38 585.61 C 569.57 588.83 573.11 591.46 576.40 594.60 C 586.11 604.34 598.34 612.08 610.18 618.97 C 614.51 621.39 618.97 623.66 623.46 625.76 C 629.08 628.41 634.78 629.89 640.21 632.98 C 643.63 634.84 646.71 637.23 650.11 639.10 C 654.27 641.46 658.87 642.57 662.82 645.35 Z" id="p0" />
<path d="M 611.12 248.29 C 615.83 247.63 618.15 251.78 619.88 255.42 C 622.09 259.69 621.57 263.84 621.79 268.46 C 623.11 268.32 624.81 268.61 625.99 267.97 C 628.64 265.59 630.10 262.20 633.18 260.02 C 636.10 258.03 639.64 256.28 643.25 256.30 C 645.37 256.36 647.61 255.96 649.08 257.84 C 653.60 261.85 651.20 268.72 649.66 273.61 C 650.54 274.23 651.42 274.87 652.34 275.42 C 656.64 274.56 660.61 270.87 665.07 270.42 C 668.30 269.92 671.12 272.72 673.20 274.86 C 675.22 276.70 674.84 279.40 674.34 281.83 C 671.42 286.55 666.89 290.22 663.89 294.92 C 663.33 295.87 663.14 297.00 664.11 297.75 C 668.94 301.57 674.06 305.05 678.47 309.54 C 681.34 312.69 683.47 316.56 685.96 320.02 C 695.81 334.53 700.39 352.03 703.21 369.13 C 703.94 374.08 706.09 378.50 707.15 383.36 C 707.85 386.32 708.41 389.29 709.58 392.11 C 711.72 397.62 716.76 402.18 721.19 405.93 C 730.95 413.05 743.04 417.21 755.00 418.51 C 760.50 418.76 765.86 418.38 771.32 419.42 C 781.72 419.82 792.54 416.62 802.54 414.02 C 816.76 410.62 829.78 402.29 840.08 392.08 C 846.58 384.51 851.85 375.85 858.02 368.00 C 860.55 364.84 862.71 361.46 864.98 358.12 C 868.40 352.93 873.19 348.97 876.86 343.93 C 881.56 337.56 887.37 332.47 893.31 327.32 C 899.83 320.90 908.11 315.55 917.07 313.45 C 920.86 312.64 923.87 316.07 925.25 319.18 C 926.39 326.27 925.27 332.96 923.16 339.73 C 921.03 349.32 915.67 357.28 912.39 366.27 L 913.82 367.97 C 918.23 366.13 921.42 361.05 924.88 357.82 C 929.65 353.39 933.57 348.69 939.43 345.61 C 943.12 343.70 947.52 341.74 951.70 341.57 C 954.74 342.92 957.42 346.00 958.86 348.97 C 960.30 351.45 958.47 354.60 957.72 357.06 C 955.19 363.12 955.16 369.55 952.24 375.46 C 949.52 381.94 946.08 388.06 943.22 394.45 C 944.17 395.79 945.37 396.13 946.84 395.47 C 951.34 393.03 955.06 389.18 959.63 386.80 C 962.16 385.63 965.12 387.83 967.46 388.75 C 968.07 394.57 967.83 400.26 967.59 406.10 C 967.47 409.37 965.42 412.56 964.48 415.70 C 962.43 422.36 960.35 429.00 958.24 435.63 C 955.99 441.75 952.64 447.43 950.35 453.54 C 947.39 461.68 943.70 469.46 939.87 477.22 C 936.02 484.36 930.86 491.92 928.68 499.77 C 927.95 506.41 927.14 513.03 926.16 519.65 C 924.99 527.14 922.53 534.45 920.31 541.68 C 916.07 552.29 911.83 563.16 906.30 573.17 C 899.60 583.09 894.67 592.88 886.68 601.65 C 883.48 605.79 879.73 609.32 876.11 613.06 C 872.45 617.48 869.06 621.82 864.07 624.86 C 858.45 628.24 853.69 632.71 847.91 635.79 C 842.51 638.84 837.01 641.69 831.24 643.96 C 825.14 646.10 820.99 652.06 816.55 656.65 C 811.62 661.84 808.87 668.04 805.59 674.30 C 802.84 680.69 799.47 686.77 796.98 693.26 C 804.47 697.37 812.88 698.43 818.98 704.00 C 821.20 705.63 820.56 708.93 820.32 711.32 C 818.74 713.55 816.19 714.94 813.43 714.21 C 808.13 713.09 802.76 712.44 797.51 711.12 C 790.70 709.56 784.19 710.48 778.10 713.87 C 767.28 719.81 756.09 725.00 745.45 731.25 C 740.58 734.16 735.06 735.16 730.07 737.76 C 728.83 738.22 727.81 739.24 726.50 738.47 C 724.58 737.37 721.06 735.58 721.47 732.92 C 721.33 730.69 722.85 728.77 724.12 727.07 C 730.42 719.10 741.04 718.63 746.04 709.39 C 741.76 710.18 737.51 711.09 733.22 711.82 C 729.74 712.40 726.49 713.86 723.04 714.47 C 719.52 714.67 715.82 713.04 712.44 712.18 C 712.48 710.48 712.16 708.74 712.72 707.16 C 714.50 704.57 717.02 702.78 719.87 701.53 C 726.51 698.58 734.34 697.39 741.47 695.97 C 749.22 694.69 757.12 692.93 764.94 692.40 C 768.03 692.17 770.74 690.85 773.21 689.06 C 777.11 686.61 778.46 680.74 780.49 676.76 C 782.75 670.91 786.35 664.72 786.71 658.42 C 782.50 657.02 778.15 657.88 773.93 656.53 C 765.08 653.98 755.89 651.20 747.68 647.02 C 742.27 644.04 737.28 640.28 732.30 636.65 C 727.97 633.61 725.58 628.97 720.95 626.30 C 717.16 629.27 714.93 633.29 711.68 636.76 C 707.44 641.32 702.32 645.10 696.23 646.74 C 693.31 647.69 689.59 648.15 687.11 650.02 C 684.31 653.28 682.49 657.33 679.79 660.70 C 676.06 665.81 670.81 671.83 670.09 678.29 C 673.84 680.14 677.83 678.85 681.51 680.75 C 685.82 682.82 690.53 685.67 693.30 689.67 C 693.64 690.87 693.64 692.18 693.43 693.41 C 692.16 695.52 689.05 696.70 686.74 697.25 C 682.36 696.64 678.08 695.34 673.68 694.80 C 664.12 694.22 655.06 691.37 645.75 695.49 C 640.19 698.06 634.27 699.29 628.58 701.42 C 619.82 705.27 611.15 708.63 601.67 710.27 C 597.00 710.91 592.88 709.66 588.50 708.27 C 588.62 706.36 588.04 703.93 589.53 702.47 C 594.14 696.27 603.46 695.74 609.76 690.88 C 606.99 688.99 604.11 689.32 600.95 689.36 C 596.23 689.37 591.72 690.73 586.98 690.58 C 584.36 690.46 581.00 691.03 579.04 688.92 C 577.68 687.40 575.95 684.76 576.78 682.65 C 577.98 680.07 581.19 679.70 583.61 678.89 C 588.85 677.58 594.00 675.82 599.29 674.75 C 606.35 674.05 613.04 675.35 620.10 673.56 C 627.07 671.69 633.82 673.12 640.83 672.39 C 647.79 669.98 652.30 664.24 655.84 658.06 C 658.35 653.47 661.64 650.46 662.82 645.35 C 658.87 642.57 654.27 641.46 650.11 639.10 C 646.71 637.23 643.63 634.84 640.21 632.98 C 634.78 629.89 629.08 628.41 623.46 625.76 C 618.97 623.66 614.51 621.39 610.18 618.97 C 598.34 612.08 586.11 604.34 576.40 594.60 C 573.11 591.46 569.57 588.83 566.38 585.61 C 562.92 582.18 561.09 577.91 558.01 573.89 C 552.21 566.26 547.23 558.28 543.06 549.64 C 535.24 536.47 533.50 522.94 529.98 508.42 C 528.76 501.50 529.94 494.18 529.13 487.22 C 528.26 482.20 527.90 476.65 529.22 471.68 C 530.45 466.98 530.64 462.14 531.97 457.45 C 533.72 451.15 533.95 444.79 536.26 438.62 C 537.76 434.52 538.89 430.44 539.67 426.14 C 540.99 419.11 543.45 412.43 544.99 405.47 C 546.41 398.92 548.94 392.81 549.71 386.10 C 551.93 371.05 556.54 357.45 556.66 342.14 C 558.20 334.82 560.66 327.31 564.93 321.10 C 567.33 317.43 569.47 313.74 572.46 310.50 C 576.48 306.22 579.49 301.41 584.27 298.20 C 586.25 296.78 588.91 295.48 590.31 293.46 C 590.96 287.73 589.60 281.19 590.93 275.45 C 592.07 271.15 593.72 266.85 595.67 262.85 C 597.81 258.47 601.47 255.30 604.89 251.90 C 606.89 250.19 608.22 248.11 611.12 248.29 Z M 630.38 326.55 C 627.41 327.30 624.64 329.39 622.33 331.36 C 618.56 334.47 616.45 340.18 618.18 344.88 C 619.45 349.64 623.51 353.09 627.77 355.18 C 631.26 356.28 634.57 355.35 637.65 353.57 C 642.19 351.29 644.71 345.83 645.42 341.03 C 644.94 336.85 642.87 333.09 639.56 330.47 C 637.07 328.50 633.77 325.86 630.38 326.55 Z M 579.48 330.65 C 573.84 333.28 569.96 338.84 571.84 345.24 C 573.83 348.58 577.28 351.50 580.75 353.21 C 584.85 354.67 587.98 351.22 590.57 348.59 C 592.51 346.31 595.59 342.98 594.14 339.77 C 592.61 336.48 590.44 332.76 587.28 330.82 C 584.82 330.17 581.98 330.21 579.48 330.65 Z M 615.91 366.07 C 614.54 360.31 609.11 356.04 605.08 351.87 C 603.35 349.92 600.61 349.57 598.57 351.24 C 594.54 354.46 590.42 358.26 586.96 362.08 C 584.16 364.91 585.41 369.57 587.27 372.57 C 588.87 375.17 591.32 378.58 594.83 377.42 C 598.24 375.77 601.26 373.43 604.67 371.79 C 608.46 369.95 612.27 368.20 615.91 366.07 Z M 587.87 384.10 C 583.06 388.08 581.51 395.15 580.58 401.04 C 579.41 410.14 587.54 419.70 596.93 418.68 C 602.17 419.02 606.43 416.52 610.35 413.34 C 613.28 410.71 615.09 407.03 614.38 403.03 C 613.37 397.94 615.05 393.12 614.52 388.01 C 614.49 386.08 613.11 384.68 612.17 383.08 C 606.22 383.71 603.84 389.19 599.37 392.39 C 598.39 392.62 596.79 392.84 596.03 392.01 C 593.24 389.46 590.72 386.61 587.87 384.10 Z M 876.65 492.60 C 876.35 498.43 876.56 504.26 876.38 510.08 C 875.97 515.40 872.35 520.18 869.40 524.42 C 866.10 529.11 861.93 534.25 856.40 536.32 C 852.37 537.00 848.04 536.30 843.95 536.54 C 842.65 538.22 844.08 539.59 844.57 541.32 C 845.53 543.30 845.55 545.33 845.67 547.48 C 840.07 551.85 833.11 554.62 826.61 557.41 C 819.39 559.86 811.60 561.60 803.94 561.55 C 800.19 561.53 796.64 562.65 792.89 562.56 C 789.55 562.62 786.44 561.47 783.10 561.49 C 773.49 561.78 763.58 560.50 754.57 557.07 C 746.22 554.71 738.36 551.21 730.58 547.40 C 720.85 543.30 712.35 535.45 703.80 529.17 C 699.88 526.48 697.75 522.65 695.34 518.70 C 692.00 513.09 687.73 509.03 685.11 503.02 C 681.80 495.07 679.00 486.99 677.71 478.43 C 677.04 472.23 677.88 465.91 677.40 459.72 L 676.02 459.07 C 674.14 463.41 672.41 468.05 671.60 472.71 C 671.41 477.38 670.32 481.78 671.29 486.45 C 671.51 496.65 674.66 505.94 678.41 515.31 C 680.16 520.32 683.11 524.46 686.64 528.36 C 690.90 532.92 694.30 537.86 699.09 541.91 C 716.65 557.25 738.92 565.45 761.20 571.12 C 767.32 571.73 773.40 572.41 779.54 572.82 C 786.14 574.04 792.27 573.28 799.00 573.50 C 807.12 574.13 815.75 570.97 823.53 568.75 C 834.40 566.00 843.45 558.96 851.86 551.85 C 854.47 549.70 856.17 546.88 858.51 544.50 C 863.19 540.12 871.42 538.45 874.68 532.69 C 879.62 524.33 882.80 514.39 881.19 504.63 C 880.17 500.50 878.35 496.50 876.65 492.60 Z" id="p1" />
<path d="M 630.38 326.55 C 633.77 325.86 637.07 328.50 639.56 330.47 C 642.87 333.09 644.94 336.85 645.42 341.03 C 644.71 345.83 642.19 351.29 637.65 353.57 C 634.57 355.35 631.26 356.28 627.77 355.18 C 623.51 353.09 619.45 349.64 618.18 344.88 C 616.45 340.18 618.56 334.47 622.33 331.36 C 624.64 329.39 627.41 327.30 630.38 326.55 Z M 629.28 334.92 C 627.65 336.24 626.50 338.23 625.74 340.16 C 624.45 343.31 627.67 346.87 630.05 348.56 C 632.58 348.58 635.10 346.36 636.44 344.35 C 639.60 340.32 634.28 332.08 629.28 334.92 Z" id="p2" />
<path d="M 579.48 330.65 C 581.98 330.21 584.82 330.17 587.28 330.82 C 590.44 332.76 592.61 336.48 594.14 339.77 C 595.59 342.98 592.51 346.31 590.57 348.59 C 587.98 351.22 584.85 354.67 580.75 353.21 C 577.28 351.50 573.83 348.58 571.84 345.24 C 569.96 338.84 573.84 333.28 579.48 330.65 Z M 578.35 344.59 C 580.41 345.62 581.97 346.90 584.43 346.41 C 585.75 345.33 587.08 343.71 587.39 342.00 C 587.15 340.08 586.10 338.21 585.30 336.46 C 580.02 336.13 578.03 339.77 578.35 344.59 Z" id="p3" />
<path d="M 629.28 334.92 C 634.28 332.08 639.60 340.32 636.44 344.35 C 635.10 346.36 632.58 348.58 630.05 348.56 C 627.67 346.87 624.45 343.31 625.74 340.16 C 626.50 338.23 627.65 336.24 629.28 334.92 Z" id="p4" />
<path d="M 585.30 336.46 C 586.10 338.21 587.15 340.08 587.39 342.00 C 587.08 343.71 585.75 345.33 584.43 346.41 C 581.97 346.90 580.41 345.62 578.35 344.59 C 578.03 339.77 580.02 336.13 585.30 336.46 Z" id="p5" />
<path d="M 598.57 351.24 C 600.61 349.57 603.35 349.92 605.08 351.87 C 609.11 356.04 614.54 360.31 615.91 366.07 C 612.27 368.20 608.46 369.95 604.67 371.79 C 601.26 373.43 598.24 375.77 594.83 377.42 C 591.32 378.58 588.87 375.17 587.27 372.57 C 585.41 369.57 584.16 364.91 586.96 362.08 C 590.42 358.26 594.54 354.46 598.57 351.24 Z" id="p6" />
<path d="M 612.17 383.08 C 613.11 384.68 614.49 386.08 614.52 388.01 C 615.05 393.12 613.37 397.94 614.38 403.03 C 615.09 407.03 613.28 410.71 610.35 413.34 C 606.43 416.52 602.17 419.02 596.93 418.68 C 587.54 419.70 579.41 410.14 580.58 401.04 C 581.51 395.15 583.06 388.08 587.87 384.10 C 590.72 386.61 593.24 389.46 596.03 392.01 C 596.79 392.84 598.39 392.62 599.37 392.39 C 603.84 389.19 606.22 383.71 612.17 383.08 Z" id="p7" />
<path d="M 676.02 459.07 L 677.40 459.72 C 677.88 465.91 677.04 472.23 677.71 478.43 C 679.00 486.99 681.80 495.07 685.11 503.02 C 687.73 509.03 692.00 513.09 695.34 518.70 C 697.75 522.65 699.88 526.48 703.80 529.17 C 712.35 535.45 720.85 543.30 730.58 547.40 C 738.36 551.21 746.22 554.71 754.57 557.07 C 763.58 560.50 773.49 561.78 783.10 561.49 C 786.44 561.47 789.55 562.62 792.89 562.56 C 796.64 562.65 800.19 561.53 803.94 561.55 C 811.60 561.60 819.39 559.86 826.61 557.41 C 833.11 554.62 840.07 551.85 845.67 547.48 C 845.55 545.33 845.53 543.30 844.57 541.32 C 844.08 539.59 842.65 538.22 843.95 536.54 C 848.04 536.30 852.37 537.00 856.40 536.32 C 861.93 534.25 866.10 529.11 869.40 524.42 C 872.35 520.18 875.97 515.40 876.38 510.08 C 876.56 504.26 876.35 498.43 876.65 492.60 C 878.35 496.50 880.17 500.50 881.19 504.63 C 882.80 514.39 879.62 524.33 874.68 532.69 C 871.42 538.45 863.19 540.12 858.51 544.50 C 856.17 546.88 854.47 549.70 851.86 551.85 C 843.45 558.96 834.40 566.00 823.53 568.75 C 815.75 570.97 807.12 574.13 799.00 573.50 C 792.27 573.28 786.14 574.04 779.54 572.82 C 773.40 572.41 767.32 571.73 761.20 571.12 C 738.92 565.45 716.65 557.25 699.09 541.91 C 694.30 537.86 690.90 532.92 686.64 528.36 C 683.11 524.46 680.16 520.32 678.41 515.31 C 674.66 505.94 671.51 496.65 671.29 486.45 C 670.32 481.78 671.41 477.38 671.60 472.71 C 672.41 468.05 674.14 463.41 676.02 459.07 Z" id="p8" />
</defs>
<g stroke-width="10pt">
<use stroke="#fdfeff" xlink:href="#p0" />
<use stroke="#202f2a" xlink:href="#p1" />
<use stroke="#fdfeff" xlink:href="#p2" />
<use stroke="#fdfeff" xlink:href="#p3" />
<use stroke="#202f2a" xlink:href="#p4" />
<use stroke="#202f2a" xlink:href="#p5" />
<use stroke="#fdfeff" xlink:href="#p6" />
<use stroke="#fdfeff" xlink:href="#p7" />
<use stroke="#fdfeff" xlink:href="#p8" />
</g>
<g>
<use fill="#fdfeff" xlink:href="#p0" />
<use fill="#202f2a" xlink:href="#p1" />
<use fill="#fdfeff" xlink:href="#p2" />
<use fill="#fdfeff" xlink:href="#p3" />
<use fill="#202f2a" xlink:href="#p4" />
<use fill="#202f2a" xlink:href="#p5" />
<use fill="#fdfeff" xlink:href="#p6" />
<use fill="#fdfeff" xlink:href="#p7" />
<use fill="#fdfeff" xlink:href="#p8" />
</g>
</svg>